<svg width="15" height="16" viewBox="0 0 15 16" fill="none" xmlns="http://www.w3.org/2000/svg">
<path d="M11.0143 7.8647C10.9963 7.82116 10.9702 7.78195 10.9374 7.74922L7.75032 4.56216C7.6131 4.42956 7.39551 4.42956 7.25824 4.56216C7.11756 4.69804 7.11367 4.92225 7.24955 5.06293L9.83252 7.64585H4.31246C4.11687 7.64585 3.95829 7.80443 3.95829 8.00002C3.95829 8.19561 4.11687 8.35419 4.31246 8.35419H9.83252L7.24955 10.9371C7.18315 11.0035 7.14584 11.0936 7.14584 11.1875C7.14579 11.3831 7.30437 11.5416 7.49996 11.5417C7.5939 11.5418 7.684 11.5045 7.75032 11.4379L10.9376 8.2506C10.9704 8.21787 10.9963 8.1787 11.0143 8.13525C11.0312 8.09414 11.0394 8.05065 11.0402 8.00689C11.0403 8.00447 11.0416 8.00244 11.0416 8.00002C11.0416 7.99833 11.0407 7.99691 11.0407 7.99522C11.0401 7.95078 11.0316 7.90642 11.0143 7.8647ZM7.49996 0.916687C3.58796 0.916687 0.416626 4.08802 0.416626 8.00002C0.416626 11.912 3.58796 15.0834 7.49996 15.0834C11.4101 15.0788 14.5787 11.9101 14.5833 8.00002C14.5833 4.08802 11.412 0.916687 7.49996 0.916687ZM7.49996 14.375C3.97913 14.375 1.12496 11.5208 1.12496 8.00002C1.12496 4.47919 3.97913 1.62502 7.49996 1.62502C11.0191 1.629 13.871 4.48083 13.875 8.00002C13.875 11.5208 11.0208 14.375 7.49996 14.375Z" fill="#3F3F3F"/>
</svg>
