<svg width="26" height="25" viewBox="0 0 26 25" fill="none" xmlns="http://www.w3.org/2000/svg">
<path fill-rule="evenodd" clip-rule="evenodd" d="M12.7148 1.9375C8.96966 1.9375 5.93359 4.97357 5.93359 8.71875C5.93359 12.4639 8.96966 15.5 12.7148 15.5C16.46 15.5 19.4961 12.4639 19.4961 8.71875C19.4961 4.97357 16.46 1.9375 12.7148 1.9375ZM3.99609 8.71875C3.99609 3.90352 7.89961 0 12.7148 0C17.5301 0 21.4336 3.90352 21.4336 8.71875C21.4336 13.534 17.5301 17.4375 12.7148 17.4375C7.89961 17.4375 3.99609 13.534 3.99609 8.71875Z" fill="#7E7E7E"/>
<path fill-rule="evenodd" clip-rule="evenodd" d="M12.715 17.4363C10.5041 17.4363 8.33224 18.0183 6.41763 19.1239C4.50302 20.2294 2.91317 21.8194 1.80792 23.7342C1.54045 24.1976 0.947985 24.3564 0.484614 24.0889C0.0212434 23.8214 -0.137565 23.229 0.129905 22.7656C1.4052 20.5563 3.23963 18.7216 5.4488 17.446C7.65797 16.1704 10.164 15.4988 12.715 15.4988C15.266 15.4988 17.772 16.1704 19.9812 17.446C22.1904 18.7216 24.0248 20.5563 25.3001 22.7656C25.5676 23.229 25.4088 23.8214 24.9454 24.0889C24.482 24.3564 23.8896 24.1976 23.6221 23.7342C22.5168 21.8194 20.927 20.2294 19.0124 19.1239C17.0978 18.0183 14.9259 17.4363 12.715 17.4363Z" fill="#7E7E7E"/>
</svg>
