<svg width="535" height="291" viewBox="0 0 535 291" fill="none" xmlns="http://www.w3.org/2000/svg">
<path d="M3.65998 209.327C2.38414 209.327 1.46887 208.8 0.914163 207.746C0.359453 206.692 0.303982 205.666 0.74775 204.667L25.2105 146.589C25.8206 145.092 26.8746 144.343 28.3723 144.343C29.8146 144.343 30.8408 145.092 31.4509 146.589L55.9969 204.751C56.4961 205.805 56.4129 206.831 55.7472 207.829C55.1371 208.828 54.2495 209.327 53.0846 209.327C52.419 209.327 51.8088 209.161 51.2541 208.828C50.7549 208.495 50.3388 207.996 50.006 207.33L27.1242 151.831H29.7036L6.65541 207.33C6.37806 207.996 5.96202 208.495 5.40731 208.828C4.90807 209.161 4.32563 209.327 3.65998 209.327ZM9.15161 193.851L11.6478 188.276H45.4296L47.9258 193.851H9.15161Z" fill="white"/>
<path d="M68.9875 209.327C68.0445 209.327 67.2679 209.022 66.6577 208.412C66.0475 207.801 65.7424 207.025 65.7424 206.082V147.588C65.7424 146.645 66.0475 145.868 66.6577 145.258C67.2679 144.648 68.0445 144.343 68.9875 144.343H83.9646C88.7352 144.343 93.0896 145.147 97.0281 146.756C101.022 148.309 104.461 150.555 107.346 153.495C110.23 156.38 112.449 159.791 114.002 163.73C115.611 167.668 116.415 172.023 116.415 176.793C116.415 181.564 115.611 185.946 114.002 189.94C112.449 193.878 110.23 197.317 107.346 200.257C104.461 203.142 101.022 205.388 97.0281 206.997C93.0896 208.55 88.7352 209.327 83.9646 209.327H68.9875ZM72.2325 203.502H83.9646C89.068 203.502 93.5611 202.365 97.4441 200.091C101.383 197.761 104.461 194.599 106.68 190.605C108.899 186.556 110.008 181.952 110.008 176.793C110.008 171.634 108.899 167.058 106.68 163.064C104.461 159.015 101.383 155.853 97.4441 153.579C93.5611 151.304 89.068 150.167 83.9646 150.167H72.2325V203.502Z" fill="white"/>
<path d="M150.51 209.327C149.124 209.327 148.125 208.634 147.515 207.247L122.803 149.418C122.192 147.865 122.137 146.645 122.636 145.757C123.191 144.814 124.134 144.343 125.465 144.343C126.852 144.343 127.85 145.036 128.461 146.423L151.426 201.339H149.595L172.477 146.589C172.81 145.757 173.226 145.175 173.725 144.842C174.224 144.509 174.89 144.343 175.722 144.343C176.998 144.343 177.858 144.842 178.301 145.84C178.745 146.783 178.717 147.865 178.218 149.085L153.423 207.247C153.09 208.023 152.674 208.578 152.174 208.911C151.675 209.188 151.121 209.327 150.51 209.327Z" fill="white"/>
<path d="M191.766 209.327C190.823 209.327 190.046 209.022 189.436 208.412C188.826 207.801 188.521 207.025 188.521 206.082V147.588C188.521 146.645 188.826 145.868 189.436 145.258C190.046 144.648 190.823 144.343 191.766 144.343H230.79C231.677 144.343 232.426 144.648 233.036 145.258C233.702 145.813 234.035 146.561 234.035 147.504C234.035 148.337 233.702 149.058 233.036 149.668C232.426 150.278 231.677 150.583 230.79 150.583H195.011V173.548H221.055C221.998 173.548 222.774 173.853 223.384 174.463C223.994 175.074 224.3 175.822 224.3 176.71C224.3 177.598 223.994 178.346 223.384 178.957C222.774 179.567 221.998 179.872 221.055 179.872H195.011V203.086H230.79C231.677 203.086 232.426 203.392 233.036 204.002C233.702 204.612 234.035 205.333 234.035 206.165C234.035 207.108 233.702 207.885 233.036 208.495C232.426 209.05 231.677 209.327 230.79 209.327H191.766Z" fill="white"/>
<path d="M249.377 209.327C248.434 209.327 247.657 209.022 247.047 208.412C246.437 207.801 246.131 207.025 246.131 206.082V147.588C246.131 146.645 246.437 145.868 247.047 145.258C247.657 144.648 248.434 144.343 249.377 144.343C250.375 144.343 251.207 144.731 251.873 145.508L291.645 197.761V147.588C291.645 146.645 291.951 145.868 292.561 145.258C293.171 144.648 293.947 144.343 294.891 144.343C295.778 144.343 296.527 144.648 297.137 145.258C297.803 145.868 298.136 146.645 298.136 147.588V206.082C298.136 207.025 297.803 207.801 297.137 208.412C296.527 209.022 295.778 209.327 294.891 209.327C294.447 209.327 294.003 209.244 293.559 209.077C293.115 208.911 292.755 208.634 292.478 208.245L252.622 155.992V206.082C252.622 207.025 252.289 207.801 251.623 208.412C251.013 209.022 250.264 209.327 249.377 209.327Z" fill="white"/>
<path d="M333.681 209.327C332.793 209.327 332.017 209.022 331.351 208.412C330.741 207.746 330.436 206.969 330.436 206.082V144.343H336.926V206.082C336.926 206.969 336.621 207.746 336.011 208.412C335.401 209.022 334.624 209.327 333.681 209.327ZM310.716 150.25C309.828 150.25 309.107 149.973 308.553 149.418C307.998 148.864 307.721 148.17 307.721 147.338C307.721 146.451 307.998 145.729 308.553 145.175C309.107 144.62 309.828 144.343 310.716 144.343H356.729C357.617 144.343 358.338 144.62 358.893 145.175C359.447 145.729 359.725 146.451 359.725 147.338C359.725 148.17 359.447 148.864 358.893 149.418C358.338 149.973 357.617 150.25 356.729 150.25H310.716Z" fill="white"/>
<path d="M395.193 210.658C390.145 210.658 385.652 209.687 381.714 207.746C377.831 205.805 374.78 203.114 372.561 199.675C370.398 196.236 369.316 192.297 369.316 187.86V147.588C369.316 146.645 369.621 145.868 370.231 145.258C370.842 144.648 371.618 144.343 372.561 144.343C373.504 144.343 374.281 144.648 374.891 145.258C375.501 145.868 375.806 146.645 375.806 147.588V187.86C375.806 191.132 376.611 194.017 378.219 196.513C379.883 199.009 382.185 200.979 385.125 202.421C388.065 203.808 391.421 204.501 395.193 204.501C398.91 204.501 402.21 203.808 405.095 202.421C407.979 200.979 410.226 199.009 411.835 196.513C413.499 194.017 414.331 191.132 414.331 187.86V147.588C414.331 146.645 414.636 145.868 415.246 145.258C415.856 144.648 416.633 144.343 417.576 144.343C418.574 144.343 419.351 144.648 419.906 145.258C420.516 145.868 420.821 146.645 420.821 147.588V187.86C420.821 192.297 419.712 196.236 417.493 199.675C415.329 203.114 412.306 205.805 408.423 207.746C404.596 209.687 400.186 210.658 395.193 210.658Z" fill="white"/>
<path d="M440.735 209.327C439.792 209.327 439.016 209.022 438.405 208.412C437.795 207.801 437.49 207.025 437.49 206.082V147.588C437.49 146.645 437.795 145.868 438.405 145.258C439.016 144.648 439.792 144.343 440.735 144.343H456.295C460.344 144.343 463.95 145.202 467.112 146.922C470.274 148.586 472.742 150.944 474.517 153.995C476.348 156.99 477.263 160.457 477.263 164.395C477.263 168.167 476.348 171.523 474.517 174.463C472.742 177.403 470.274 179.705 467.112 181.37C463.95 183.034 460.344 183.866 456.295 183.866H443.98V206.082C443.98 207.025 443.675 207.801 443.065 208.412C442.455 209.022 441.678 209.327 440.735 209.327ZM475.516 209.327C474.794 209.327 474.212 209.188 473.768 208.911C473.38 208.634 473.019 208.217 472.686 207.663L456.711 182.202L463.201 180.537L478.095 204.335C478.927 205.666 479.066 206.831 478.511 207.829C478.012 208.828 477.013 209.327 475.516 209.327ZM443.98 177.625H456.295C459.124 177.625 461.62 177.071 463.783 175.961C466.002 174.796 467.75 173.215 469.025 171.218C470.301 169.221 470.939 166.947 470.939 164.395C470.939 161.677 470.301 159.292 469.025 157.24C467.75 155.132 466.002 153.495 463.783 152.33C461.62 151.166 459.124 150.583 456.295 150.583H443.98V177.625Z" fill="white"/>
<path d="M492.171 209.327C491.228 209.327 490.451 209.022 489.841 208.412C489.231 207.801 488.925 207.025 488.925 206.082V147.588C488.925 146.645 489.231 145.868 489.841 145.258C490.451 144.648 491.228 144.343 492.171 144.343H531.194C532.082 144.343 532.831 144.648 533.441 145.258C534.107 145.813 534.439 146.561 534.439 147.504C534.439 148.337 534.107 149.058 533.441 149.668C532.831 150.278 532.082 150.583 531.194 150.583H495.416V173.548H521.459C522.402 173.548 523.179 173.853 523.789 174.463C524.399 175.074 524.704 175.822 524.704 176.71C524.704 177.598 524.399 178.346 523.789 178.957C523.179 179.567 522.402 179.872 521.459 179.872H495.416V203.086H531.194C532.082 203.086 532.831 203.392 533.441 204.002C534.107 204.612 534.439 205.333 534.439 206.165C534.439 207.108 534.107 207.885 533.441 208.495C532.831 209.05 532.082 209.327 531.194 209.327H492.171Z" fill="white"/>
<circle cx="140.079" cy="280.765" r="8.01021" fill="white"/>
<path d="M143.022 273.739L168.886 215.142" stroke="white" stroke-width="2.82659" stroke-linecap="round"/>
<path d="M383.543 273.799L357.679 215.202" stroke="white" stroke-width="2.82659" stroke-linecap="round"/>
<path d="M205.811 131.864L231.675 73.2671" stroke="white" stroke-width="2.82659" stroke-linecap="round"/>
<path d="M320.754 131.925L294.89 73.3276" stroke="white" stroke-width="2.82659" stroke-linecap="round"/>
<path d="M237.206 60.927L263.07 2.32983" stroke="white" stroke-width="2.82659" stroke-linecap="round"/>
<path d="M289.359 60.9875L263.496 2.39032" stroke="white" stroke-width="2.82659" stroke-linecap="round"/>
<path d="M373.657 280.479L389.642 285.536L394.698 269.551" fill="white"/>
<path d="M373.657 280.479L389.642 285.536L394.698 269.551" stroke="white" stroke-width="2.82659" stroke-linecap="round" stroke-linejoin="round"/>
</svg>
