<svg width="24" height="27" viewBox="0 0 24 27" fill="none" xmlns="http://www.w3.org/2000/svg">
<path fill-rule="evenodd" clip-rule="evenodd" d="M0 10.6562C0 9.5862 0.867448 8.71875 1.9375 8.71875H21.3125C22.3826 8.71875 23.25 9.5862 23.25 10.6562V24.2188C23.25 25.2888 22.3826 26.1562 21.3125 26.1562H1.9375C0.867448 26.1562 0 25.2888 0 24.2188V10.6562ZM21.3125 10.6562H1.9375V24.2188H21.3125V10.6562Z" fill="#7E7E7E"/>
<path fill-rule="evenodd" clip-rule="evenodd" d="M11.625 1.9375C10.7257 1.9375 9.86333 2.29473 9.22747 2.93059C8.5916 3.56646 8.23438 4.42888 8.23438 5.32812V9.6875C8.23438 10.2225 7.80065 10.6562 7.26562 10.6562C6.7306 10.6562 6.29688 10.2225 6.29688 9.6875V5.32812C6.29688 3.91502 6.85823 2.55979 7.85745 1.56057C8.85666 0.561354 10.2119 0 11.625 0C13.0381 0 14.3933 0.561354 15.3926 1.56057C16.3918 2.55979 16.9531 3.91502 16.9531 5.32812V9.6875C16.9531 10.2225 16.5194 10.6562 15.9844 10.6562C15.4493 10.6562 15.0156 10.2225 15.0156 9.6875V5.32812C15.0156 4.42888 14.6584 3.56646 14.0225 2.93059C13.3867 2.29473 12.5242 1.9375 11.625 1.9375Z" fill="#7E7E7E"/>
</svg>
